<svg xmlns="http://www.w3.org/2000/svg" xmlns:xlink="http://www.w3.org/1999/xlink" width="1000" zoomAndPan="magnify" viewBox="0 0 750 749.999995" height="1000" preserveAspectRatio="xMidYMid meet" version="1.0"><defs><clipPath id="4a28e33733"><path d="M 4 163.839844 L 750 163.839844 L 750 586 L 4 586 Z M 4 163.839844 " clip-rule="nonzero"/></clipPath></defs><g clip-path="url(#4a28e33733)"><path fill="#2659a9" d="M 702.007812 293.726562 C 722.445312 301.898438 750.023438 301.898438 750.023438 324.398438 C 750.023438 377.527344 530.347656 409.203125 522.167969 409.203125 L 449.625 567.601562 C 444.503906 579.855469 437.355469 582.933594 429.164062 583.9375 L 405.652344 585.984375 L 405.652344 475.644531 L 359.683594 434.753906 C 354.566406 434.753906 324.917969 439.839844 263.632812 439.839844 C 192.101562 439.839844 172.679688 436.796875 167.570312 436.796875 L 159.414062 471.535156 C 158.371094 477.683594 141 480.734375 137.949219 476.644531 L 101.148438 427.589844 C 94.011719 427.589844 75.613281 425.574219 75.613281 419.417969 C 75.613281 411.269531 78.675781 408.195312 82.761719 406.15625 L 5.101562 333.585938 C 0.0078125 328.492188 18.398438 318.28125 34.730469 326.425781 L 110.351562 362.183594 L 105.234375 302.921875 L 122.613281 299.886719 C 128.746094 298.855469 142.050781 308.066406 146.117188 312.121094 L 199.273438 369.351562 L 291.230469 351.96875 L 248.300781 308.066406 L 47.027344 181.347656 L 64.375 168.054688 C 64.375 168.054688 68.472656 163.96875 82.773438 163.96875 L 482.308594 319.308594 L 606.976562 295.804688 C 612.082031 294.765625 633.550781 282.515625 659.089844 282.515625 C 686.699219 282.515625 686.699219 287.605469 702.023438 293.726562 " fill-opacity="1" fill-rule="nonzero"/></g></svg>