<svg xmlns="http://www.w3.org/2000/svg" xmlns:xlink="http://www.w3.org/1999/xlink" width="1000" zoomAndPan="magnify" viewBox="0 0 750 749.999995" height="1000" preserveAspectRatio="xMidYMid meet" version="1.0"><defs><clipPath id="eda4b46214"><path d="M 130 97.621094 L 620 97.621094 L 620 652.621094 L 130 652.621094 Z M 130 97.621094 " clip-rule="nonzero"/></clipPath></defs><g clip-path="url(#eda4b46214)"><path fill="#ed9436" d="M 359.304688 193.617188 C 389.765625 213.003906 410.996094 245.308594 414.6875 282.230469 C 426.6875 287.769531 440.53125 291.460938 455.300781 291.460938 C 508.839844 291.460938 552.222656 248.078125 552.222656 194.542969 C 552.222656 141.003906 508.839844 97.621094 455.300781 97.621094 C 402.6875 98.542969 359.304688 141.003906 359.304688 193.617188 Z M 295.613281 391.152344 C 349.148438 391.152344 392.535156 347.769531 392.535156 294.230469 C 392.535156 240.695312 349.148438 197.3125 295.613281 197.3125 C 242.074219 197.3125 198.691406 240.695312 198.691406 294.230469 C 198.691406 347.769531 242.074219 391.152344 295.613281 391.152344 Z M 336.226562 397.613281 L 254.074219 397.613281 C 185.769531 397.613281 130.386719 452.996094 130.386719 521.300781 L 130.386719 623.761719 L 136.847656 625.605469 C 201.460938 645.914062 258.691406 652.375 304.84375 652.375 C 395.300781 652.375 447.917969 626.53125 451.609375 624.683594 L 458.070312 620.992188 L 458.992188 620.992188 L 458.992188 521.300781 C 459.917969 452.996094 404.535156 397.613281 336.226562 397.613281 Z M 495.914062 297.921875 L 414.6875 297.921875 C 413.765625 330.230469 399.917969 359.769531 377.765625 380.996094 C 438.6875 399.457031 482.992188 454.84375 482.992188 521.300781 L 482.992188 551.761719 C 563.296875 548.992188 609.449219 525.917969 612.21875 524.992188 L 618.679688 521.300781 L 619.605469 521.300781 L 619.605469 421.613281 C 619.605469 353.304688 564.222656 297.921875 495.914062 297.921875 Z M 495.914062 297.921875 " fill-opacity="1" fill-rule="nonzero"/></g></svg>