<svg xmlns="http://www.w3.org/2000/svg" xmlns:xlink="http://www.w3.org/1999/xlink" width="1000" zoomAndPan="magnify" viewBox="0 0 750 749.999995" height="1000" preserveAspectRatio="xMidYMid meet" version="1.0"><defs><clipPath id="24ffb35763"><path d="M 137.246094 210 L 612.621094 210 L 612.621094 659.128906 L 137.246094 659.128906 Z M 137.246094 210 " clip-rule="nonzero"/></clipPath><clipPath id="a9b331e03a"><path d="M 324.574219 310.96875 L 425.425781 310.96875 L 425.425781 439.394531 L 324.574219 439.394531 Z M 324.574219 310.96875 " clip-rule="nonzero"/></clipPath><clipPath id="205e7496c9"><path d="M 359.824219 310.96875 L 390.175781 310.96875 C 409.644531 310.96875 425.425781 326.75 425.425781 346.21875 L 425.425781 403.78125 C 425.425781 423.25 409.644531 439.03125 390.175781 439.03125 L 359.824219 439.03125 C 340.355469 439.03125 324.574219 423.25 324.574219 403.78125 L 324.574219 346.21875 C 324.574219 326.75 340.355469 310.96875 359.824219 310.96875 Z M 359.824219 310.96875 " clip-rule="nonzero"/></clipPath></defs><g clip-path="url(#24ffb35763)"><path fill="#ae4232" d="M 609.53125 412.828125 L 385.121094 214.59375 C 379.300781 209.453125 370.570312 209.453125 364.75 214.59375 L 140.339844 412.828125 C 138.6875 414.285156 137.742188 416.386719 137.742188 418.59375 L 137.742188 651.746094 C 137.742188 655.992188 141.1875 659.433594 145.433594 659.433594 L 303.179688 659.433594 C 307.425781 659.433594 310.871094 655.992188 310.871094 651.746094 L 310.871094 502.832031 C 310.871094 485.84375 324.640625 472.070312 341.628906 472.070312 L 408.242188 472.070312 C 425.230469 472.070312 439 485.84375 439 502.832031 L 439 651.746094 C 439 655.992188 442.445312 659.433594 446.691406 659.433594 L 604.4375 659.433594 C 608.683594 659.433594 612.128906 655.992188 612.128906 651.746094 L 612.128906 418.59375 C 612.128906 416.386719 611.183594 414.285156 609.53125 412.828125 " fill-opacity="1" fill-rule="nonzero"/></g><path fill="#ae4232" d="M 671.355469 335.90625 L 415.546875 111.089844 C 392.316406 90.679688 357.546875 90.679688 334.320312 111.089844 L 78.515625 335.90625 C 65.90625 346.996094 65.28125 366.421875 77.152344 378.296875 C 88 389.140625 105.40625 389.691406 116.914062 379.554688 L 354.605469 170.207031 C 366.226562 159.96875 383.644531 159.96875 395.265625 170.199219 L 632.957031 379.554688 C 644.46875 389.691406 661.875 389.140625 672.71875 378.296875 C 684.59375 366.421875 683.964844 346.992188 671.355469 335.90625 " fill-opacity="1" fill-rule="nonzero"/><g clip-path="url(#a9b331e03a)"><g clip-path="url(#205e7496c9)"><path fill="#ae4232" d="M 324.574219 310.96875 L 425.425781 310.96875 L 425.425781 439.003906 L 324.574219 439.003906 Z M 324.574219 310.96875 " fill-opacity="1" fill-rule="nonzero"/></g></g></svg>